<?xml version="1.0" encoding="UTF-8"?>
<!-- Generator: Adobe Illustrator 24.0.0, SVG Export Plug-In . SVG Version: 6.00 Build 0)  -->
<svg version="1.1" id="Layer_1" xmlns="http://www.w3.org/2000/svg" xmlns:xlink="http://www.w3.org/1999/xlink" x="0px" y="0px" viewBox="0 0 372 115" style="enable-background:new 0 0 372 115;" xml:space="preserve">
<style type="text/css">
	.st0{fill:#EF3B33;}
	.st1{fill:#FFFFFF;}
</style>
<g>
	<rect id="Rectangle_38" x="0.3" y="0.1" class="st0" width="371.5" height="114.8"/>
	<g id="Group_23" transform="translate(66.988 42.1)">
		<path id="Path_21" class="st1" d="M6.1,29.2H0.3L10.9,0.1h5.9l10.7,29.1h-6.1L13.9,7.6L6.1,29.2z"/>
		<path id="Path_22" class="st1" d="M59,0.1h5.9L54.2,29.2h-5.9L37.6,0.1h6.1l7.5,21.6L59,0.1z"/>
		<path id="Path_23" class="st1" d="M80.3,29.2V0.1h5.9v29.1H80.3z"/>
		<path id="Path_24" class="st1" d="M116.9,5.7v23.8h-5.6V5.7h-9.1V0.4h24v5.3H116.9z"/>
		<path id="Path_25" class="st1" d="M152.6,30c-1.5,0-2.9-0.3-4.3-0.8c-1.3-0.4-2.5-1.2-3.5-2.1c-1.1-0.9-1.9-2.1-2.4-3.5    c-0.6-1.5-0.8-3.2-0.8-4.8V0.1h5.6v18.4c-0.1,1.6,0.4,3.2,1.6,4.3c1.1,1.1,2.5,1.6,4,1.6c1.5,0.1,3-0.5,4-1.6    c1.1-1.1,1.7-2.7,1.6-4.3V0.1h5.6v18.7c0,1.6-0.2,3.3-0.8,4.8c-0.5,1.3-1.4,2.5-2.4,3.5c-1.1,0.9-2.2,1.6-3.5,2.1    C155.9,29.7,154.3,30,152.6,30z"/>
		<path id="Path_26" class="st1" d="M190.8,18h-2.9v11.2h-5.6V0.1h11.5c1.3,0,2.6,0.3,3.7,0.8c1.1,0.5,2.1,1.1,2.9,1.9    c0.8,0.8,1.5,1.8,1.9,2.9c0.5,1.1,0.6,2.3,0.5,3.5c0,1.9-0.5,3.8-1.6,5.3c-1.2,1.4-2.8,2.4-4.5,2.9l6.1,12h-6.4L190.8,18z     M192.4,13.2c1.3,0.1,2.5-0.3,3.5-1.1c0.8-0.8,1.2-1.8,1.1-2.9c0.1-1.1-0.3-2.2-1.1-2.9c-1-0.8-2.2-1.2-3.5-1.1h-4.5v8L192.4,13.2    z"/>
		<path id="Path_27" class="st1" d="M219.6,29.2V0.1h18.1v5.3h-12.5v6.7h11.5v5.1h-11.5v6.7h12.5v5.3L219.6,29.2z"/>
	</g>
</g>
</svg>